<svg width="524" height="524" viewBox="0 0 524 524" fill="none" xmlns="http://www.w3.org/2000/svg">
<rect width="524" height="524" fill="black"/>
<rect x="328.035" y="286.186" width="56.72" height="143.854" rx="28.36" transform="rotate(-154.127 328.035 286.186)" fill="#256FFF"/>
<path d="M382.599 102.959L394.649 203.363L301.671 163.597L382.599 102.959Z" fill="#256FFF"/>
<rect x="103" y="216.248" width="56.722" height="210.046" rx="28.361" transform="rotate(-22 103 216.248)" fill="#256FFF"/>
<rect x="266.354" y="200.263" width="55.722" height="203.892" rx="27.861" transform="rotate(22 266.354 200.263)" fill="white" stroke="black"/>
<rect x="246" y="249.836" width="56.722" height="107.445" rx="28.361" transform="rotate(-61.474 246 249.836)" fill="white"/>
<rect x="346.036" y="301.428" width="56.722" height="142.57" rx="28.361" transform="rotate(-154.127 346.036 301.428)" fill="white"/>
<rect x="129.366" y="216.248" width="56.722" height="210.046" rx="28.361" transform="rotate(-22 129.366 216.248)" fill="white"/>
<path d="M400.599 115.959L412.649 216.363L319.671 176.597L400.599 115.959Z" fill="white"/>
<circle cx="328.5" cy="379.5" r="31.5" fill="#256FFF"/>
</svg>
